<svg width="67" height="18" viewBox="0 0 67 18" fill="none" xmlns="http://www.w3.org/2000/svg">
<path d="M3.432 0.351001V16.965H-9.23872e-07V0.351001H3.432ZM1.924 16.965V14.092H10.621V16.965H1.924ZM21.8002 17.342C19.5036 17.342 17.7659 16.744 16.5872 15.548C15.4172 14.3433 14.8322 12.623 14.8322 10.387V7.007C14.8322 4.76233 15.4172 3.03333 16.5872 1.82C17.7659 0.606668 19.5036 1.19209e-06 21.8002 1.19209e-06C24.0969 1.19209e-06 25.8302 0.606668 27.0002 1.82C28.1789 3.03333 28.7682 4.76233 28.7682 7.007V10.387C28.7682 12.623 28.1832 14.3433 27.0132 15.548C25.8432 16.744 24.1056 17.342 21.8002 17.342ZM21.8002 14.508C22.9702 14.508 23.8456 14.1613 24.4262 13.468C25.0069 12.7747 25.2972 11.7997 25.2972 10.543V6.851C25.2972 5.551 25.0069 4.55434 24.4262 3.861C23.8456 3.159 22.9702 2.808 21.8002 2.808C20.6389 2.808 19.7679 3.159 19.1872 3.861C18.6066 4.55434 18.3162 5.551 18.3162 6.851V10.543C18.3162 11.7997 18.6066 12.7747 19.1872 13.468C19.7679 14.1613 20.6389 14.508 21.8002 14.508ZM39.7521 17.316C38.4867 17.316 37.4251 17.0517 36.5671 16.523C35.7177 15.9857 35.0764 15.2143 34.6431 14.209C34.2184 13.195 34.0061 11.973 34.0061 10.543V7.241C34.0061 4.89233 34.6301 3.09833 35.8781 1.859C37.1347 0.619668 38.9721 1.19209e-06 41.3901 1.19209e-06C42.1701 1.19209e-06 42.8851 0.0606681 43.5351 0.182002C44.1937 0.294668 44.7874 0.442001 45.3161 0.624001C45.8534 0.797334 46.3171 0.992334 46.7071 1.209L46.9931 4.147C46.3604 3.81767 45.6367 3.53167 44.8221 3.289C44.0074 3.03767 43.0801 2.912 42.0401 2.912C40.4801 2.912 39.3317 3.28467 38.5951 4.03C37.8584 4.77533 37.4901 5.89767 37.4901 7.397V10.556C37.4901 11.7867 37.7761 12.7357 38.3481 13.403C38.9287 14.0703 39.8171 14.404 41.0131 14.404C41.5764 14.404 42.0617 14.3173 42.4691 14.144C42.8764 13.9707 43.2144 13.7367 43.4831 13.442C43.7517 13.1473 43.9554 12.8267 44.0941 12.48V8.996L44.5621 10.049L41.1431 10.062V7.358H47.3831V14.274L44.0291 14.261C43.8904 14.833 43.6651 15.3487 43.3531 15.808C43.0411 16.2673 42.5947 16.6357 42.0141 16.913C41.4334 17.1817 40.6794 17.316 39.7521 17.316ZM44.0681 16.965L44.1851 13.546H47.3831V16.965H44.0681ZM59.8432 17.342C57.5465 17.342 55.8089 16.744 54.6302 15.548C53.4602 14.3433 52.8752 12.623 52.8752 10.387V7.007C52.8752 4.76233 53.4602 3.03333 54.6302 1.82C55.8089 0.606668 57.5465 1.19209e-06 59.8432 1.19209e-06C62.1399 1.19209e-06 63.8732 0.606668 65.0432 1.82C66.2219 3.03333 66.8112 4.76233 66.8112 7.007V10.387C66.8112 12.623 66.2262 14.3433 65.0562 15.548C63.8862 16.744 62.1485 17.342 59.8432 17.342ZM59.8432 14.508C61.0132 14.508 61.8885 14.1613 62.4692 13.468C63.0499 12.7747 63.3402 11.7997 63.3402 10.543V6.851C63.3402 5.551 63.0499 4.55434 62.4692 3.861C61.8885 3.159 61.0132 2.808 59.8432 2.808C58.6819 2.808 57.8109 3.159 57.2302 3.861C56.6495 4.55434 56.3592 5.551 56.3592 6.851V10.543C56.3592 11.7997 56.6495 12.7747 57.2302 13.468C57.8109 14.1613 58.6819 14.508 59.8432 14.508Z" fill="#A9A9A9"/>
</svg>
